@startuml
title Class Diagram for app/tx
class "NetClock" as C_0000673331345305095894
class C_0000673331345305095894 {
+NetClock() = default : void
{static} +is_steady : const bool
}
class "detail::AccountIDTag" as C_0000219725434573906145
class C_0000219725434573906145 {
+AccountIDTag() = default : void
}
class "base_uint<160,detail::AccountIDTag>" as C_0002185921478450888283
class C_0002185921478450888283 {
}
class "Issue" as C_0000486101097040278900
class C_0000486101097040278900 {
+Issue() : void
+Issue() : void
}
class "Book" as C_0002294399890504248264
class C_0002294399890504248264 {
+Book() : void
+Book() : void
}
class "base_uint<256>" as C_0000434356742846908842
class C_0000434356742846908842 {
}
class "feeunit::TaggedFee<feeunit::feeunitTag,unsigned long>" as C_0001742230320570160499
class C_0001742230320570160499 {
}
class "XRPAmount" as C_0000437628577035957607
class C_0000437628577035957607 {
+XRPAmount() = default : void
+XRPAmount() = default : void
+operator=() = default : XRPAmount &
+XRPAmount() : void
+operator=() : XRPAmount &
+XRPAmount() : void
+operator=() : XRPAmount &
+operator*() const : XRPAmount
+operator+=() : XRPAmount &
+operator-=() : XRPAmount &
+operator+=() : XRPAmount &
+operator-=() : XRPAmount &
+operator*=() : XRPAmount &
+operator-() const : XRPAmount
+operator==() const : bool
+operator==() const : bool
+operator<() const : bool
+operator bool() const : bool
+signum() const : int
+drops() const : XRPAmount::value_type
+decimalXRP() const : double
+jsonClipped() const : Json::Value
+value() const : XRPAmount::value_type
{static} +minPositiveAmount() : XRPAmount
+dropsAs() : std::optional<Dest>
+dropsAs() : Dest
+dropsAs() : Dest
}
class "STAmount" as C_0000215260707563711311
class C_0000215260707563711311 {
+STAmount() : void
+STAmount() : void
+STAmount() : void
+STAmount() : void
+STAmount() : void
+STAmount() : void
+STAmount() : void
+STAmount() : void
+STAmount() : void
+STAmount() : void
+STAmount() : void
+STAmount() : void
+STAmount() : void
+STAmount() : void
+exponent() const : int
+native() const : bool
+negative() const : bool
+mantissa() const : std::uint64_t
+issue() const : const Issue &
+getCurrency() const : const Currency &
+getIssuer() const : const AccountID &
+signum() const : int
+zeroed() const : STAmount
+setJson() const : void
+value() const : const STAmount &
+operator bool() const : bool
+operator+=() : STAmount &
+operator-=() : STAmount &
+operator=() : STAmount &
+operator=() : STAmount &
+negate() : void
+clear() : void
+clear() : void
+clear() : void
+setIssuer() : void
+setIssue() : void
+getSType() const : SerializedTypeID
+getFullText() const : std::string
+getText() const : std::string
+getJson() const : Json::Value
+add() const : void
+isEquivalent() const : bool
+isDefault() const : bool
+xrp() const : XRPAmount
+iou() const : IOUAmount
{static} +cMinOffset : const int
{static} +cMaxOffset : const int
{static} +cMinValue : const std::uint64_t
{static} +cMaxValue : const std::uint64_t
{static} +cMaxNative : const std::uint64_t
{static} +cMaxNativeN : const std::uint64_t
{static} +cNotNative : const std::uint64_t
{static} +cPosNative : const std::uint64_t
{static} +uRateOne : const std::uint64_t
}
class "STObject" as C_0001368282348178883598
class C_0001368282348178883598 {
+~STObject() = default : void
+STObject() = default : void
+operator=() = default : STObject &
+STObject() : void
+operator=() : STObject &
+STObject() : void
+STObject() : void
+STObject() : void
+STObject() : void
+STObject() : void
+begin() const : STObject::iterator
+end() const : STObject::iterator
+empty() const : bool
+reserve() : void
+applyTemplate() : void
+applyTemplateFromSField() : void
+isFree() const : bool
+set() : void
+set() : bool
+getSType() const : SerializedTypeID
+isEquivalent() const : bool
+isDefault() const : bool
+add() const : void
+getFullText() const : std::string
+getText() const : std::string
+getJson() const : Json::Value
+addWithoutSigningFields() const : void
+getSerializer() const : Serializer
+getCount() const : int
+setFlag() : bool
+clearFlag() : bool
+isFlag() const : bool
+getFlags() const : std::uint32_t
+getHash() const : uint256
+getSigningHash() const : uint256
+peekAtIndex() const : const STBase &
+getIndex() : STBase &
+peekAtPIndex() const : const STBase *
+getPIndex() : STBase *
+getFieldIndex() const : int
+getFieldSType() const : const SField &
+peekAtField() const : const STBase &
+getField() : STBase &
+peekAtPField() const : const STBase *
+getPField() : STBase *
+getFieldU8() const : unsigned char
+getFieldU16() const : std::uint16_t
+getFieldU32() const : std::uint32_t
+getFieldU64() const : std::uint64_t
+getFieldH128() const : uint128
+getFieldH160() const : uint160
+getFieldH256() const : uint256
+getAccountID() const : AccountID
+getFieldVL() const : Blob
+getFieldAmount() const : const STAmount &
+getFieldPathSet() const : const STPathSet &
+getFieldV256() const : const STVector256 &
+getFieldArray() const : const STArray &
+set() : void
+set() : void
+setFieldU8() : void
+setFieldU16() : void
+setFieldU32() : void
+setFieldU64() : void
+setFieldH128() : void
+setFieldH256() : void
+setFieldVL() : void
+setFieldVL() : void
+setAccountID() : void
+setFieldAmount() : void
+setFieldPathSet() : void
+setFieldV256() : void
+setFieldArray() : void
+peekFieldObject() : STObject &
+peekFieldArray() : STArray &
+isFieldPresent() const : bool
+makeFieldPresent() : STBase *
+makeFieldAbsent() : void
+delField() : bool
+delField() : void
+hasMatchingEntry() : bool
+operator==() const : bool
+operator!=() const : bool
+STObject() : void
+emplace_back() : std::size_t
+operator[]() : typename T::value_type
+operator[]() : std::optional<std::decay_t<typename T::value_type> >
+operator[]() : ValueProxy<T>
+operator[]() : OptionalProxy<T>
+at() : typename T::value_type
+at() : std::optional<std::decay_t<typename T::value_type> >
+at() : ValueProxy<T>
+at() : OptionalProxy<T>
+setFieldH160() : void
}
class "STLedgerEntry" as C_0001270395620897132534
class C_0001270395620897132534 {
+STLedgerEntry() : void
+STLedgerEntry() : void
+STLedgerEntry() : void
+STLedgerEntry() : void
+STLedgerEntry() : void
+getSType() const : SerializedTypeID
+getFullText() const : std::string
+getText() const : std::string
+getJson() const : Json::Value
+key() const : const uint256 &
+getType() const : LedgerEntryType
+isThreadedType() const : bool
+thread() : bool
}
class "Rules" as C_0001992233408632539458
class C_0001992233408632539458 {
+Rules() = default : void
+operator=() = default : Rules &
+Rules() : void
+Rules() : void
+enabled() const : bool
+operator==() const : bool
+operator!=() const : bool
}
class "STTx" as C_0001059260590421798558
class C_0001059260590421798558 {
{static} +maxMultiSigners() : std::size_t
+STTx() : void
+STTx() = default : void
+operator=() : STTx &
+STTx() : void
+STTx() : void
+STTx() : void
+STTx() : void
+getSType() const : SerializedTypeID
+getFullText() const : std::string
+getSignature() const : Blob
+getSigningHash() const : uint256
+getTxnType() const : TxType
+getSigningPubKey() const : Blob
+getSeqProxy() const : SeqProxy
+getMentionedAccounts() const : boost::container::flat_set<AccountID>
+getTransactionID() const : uint256
+getJson() const : Json::Value
+getJson() const : Json::Value
+sign() : void
+checkSign() const : Expected<void,std::string>
{static} +getMetaSQLInsertReplaceHeader() : const std::string &
+getMetaSQL() const : std::string
+getMetaSQL() const : std::string
{static} +minMultiSigners : const std::size_t
}
class "Fees" as C_0001865612077954784567
class C_0001865612077954784567 {
+Fees() = default : void
+Fees() = default : void
+operator=() = default : Fees &
+accountReserve() const : XRPAmount
+toDrops() const : XRPAmount
}
abstract "ReadView" as C_0000719484062983967559
abstract C_0000719484062983967559 {
+~ReadView() = default : void
+operator=() : ReadView &
+operator=() : ReadView &
+ReadView() : void
+ReadView() : void
+ReadView() : void
{abstract} +info() const = 0 : const LedgerInfo &
{abstract} +open() const = 0 : bool
+parentCloseTime() const : NetClock::time_point
+seq() const : LedgerIndex
{abstract} +fees() const = 0 : const Fees &
{abstract} +rules() const = 0 : const Rules &
{abstract} +exists() const = 0 : bool
{abstract} +succ() const = 0 : std::optional<key_type>
{abstract} +read() const = 0 : std::shared_ptr<const SLE>
+balanceHook() const : STAmount
+ownerCountHook() const : std::uint32_t
{abstract} +slesBegin() const = 0 : std::unique_ptr<sles_type::iter_base>
{abstract} +slesEnd() const = 0 : std::unique_ptr<sles_type::iter_base>
{abstract} +slesUpperBound() const = 0 : std::unique_ptr<sles_type::iter_base>
{abstract} +txsBegin() const = 0 : std::unique_ptr<txs_type::iter_base>
{abstract} +txsEnd() const = 0 : std::unique_ptr<txs_type::iter_base>
{abstract} +txExists() const = 0 : bool
{abstract} +txRead() const = 0 : ReadView::tx_type
+sles : ReadView::sles_type
+txs : ReadView::txs_type
}
enum "ApplyFlags" as C_0000461717163604842131
enum C_0000461717163604842131 {
tapNONE
tapFAIL_HARD
tapRETRY
tapUNLIMITED
}
abstract "ApplyView" as C_0000368611166212330145
abstract C_0000368611166212330145 {
+ApplyView() = default : void
{abstract} +flags() const = 0 : ApplyFlags
{abstract} +peek() = 0 : std::shared_ptr<SLE>
{abstract} +erase() = 0 : void
{abstract} +insert() = 0 : void
{abstract} +update() = 0 : void
+creditHook() : void
+adjustOwnerCountHook() : void
+dirAppend() : std::optional<std::uint64_t>
+dirInsert() : std::optional<std::uint64_t>
+dirInsert() : std::optional<std::uint64_t>
+dirRemove() : bool
+dirRemove() : bool
+dirDelete() : bool
+emptyDirDelete() : bool
}
class "OpenView" as C_0001016063512578111556
class C_0001016063512578111556 {
+OpenView() : void
+operator=() : OpenView &
+operator=() : OpenView &
+OpenView() = default : void
+OpenView() : void
+OpenView() : void
+OpenView() : void
+OpenView() : void
+open() const : bool
+txCount() const : std::size_t
+apply() const : void
+info() const : const LedgerInfo &
+fees() const : const Fees &
+rules() const : const Rules &
+exists() const : bool
+succ() const : std::optional<key_type>
+read() const : std::shared_ptr<const SLE>
+slesBegin() const : std::unique_ptr<sles_type::iter_base>
+slesEnd() const : std::unique_ptr<sles_type::iter_base>
+slesUpperBound() const : std::unique_ptr<sles_type::iter_base>
+txsBegin() const : std::unique_ptr<txs_type::iter_base>
+txsEnd() const : std::unique_ptr<txs_type::iter_base>
+txExists() const : bool
+txRead() const : ReadView::tx_type
+rawErase() : void
+rawInsert() : void
+rawReplace() : void
+rawDestroyXRP() : void
+rawTxInsert() : void
}
class "nft::TaxonTag" as C_0000528120435939077497
class C_0000528120435939077497 {
}
class "TERSubset<CanCvtToTER>" as C_0000387912696222928946
class C_0000387912696222928946 {
}
abstract "Application" as C_0000024089222317618888
abstract C_0000024089222317618888 {
{abstract} +getMasterMutex() = 0 : Application::MutexType &
+Application() : void
+~Application() = default : void
{abstract} +setup() = 0 : bool
{abstract} +start() = 0 : void
{abstract} +run() = 0 : void
{abstract} +signalStop() = 0 : void
{abstract} +checkSigs() const = 0 : bool
{abstract} +checkSigs() = 0 : void
{abstract} +isStopping() const = 0 : bool
{abstract} +logs() = 0 : Logs &
{abstract} +config() = 0 : Config &
{abstract} +getIOService() = 0 : boost::asio::io_service &
{abstract} +getCollectorManager() = 0 : CollectorManager &
{abstract} +getNodeFamily() = 0 : Family &
{abstract} +getShardFamily() = 0 : Family *
{abstract} +timeKeeper() = 0 : TimeKeeper &
{abstract} +getJobQueue() = 0 : JobQueue &
{abstract} +getTempNodeCache() = 0 : NodeCache &
{abstract} +cachedSLEs() = 0 : CachedSLEs &
{abstract} +getAmendmentTable() = 0 : AmendmentTable &
{abstract} +getHashRouter() = 0 : HashRouter &
{abstract} +getFeeTrack() = 0 : LoadFeeTrack &
{abstract} +getLoadManager() = 0 : LoadManager &
{abstract} +overlay() = 0 : Overlay &
{abstract} +getTxQ() = 0 : TxQ &
{abstract} +validators() = 0 : ValidatorList &
{abstract} +validatorSites() = 0 : ValidatorSite &
{abstract} +validatorManifests() = 0 : ManifestCache &
{abstract} +publisherManifests() = 0 : ManifestCache &
{abstract} +cluster() = 0 : Cluster &
{abstract} +peerReservations() = 0 : PeerReservationTable &
{abstract} +getValidations() = 0 : RCLValidations &
{abstract} +getNodeStore() = 0 : NodeStore::Database &
{abstract} +getShardStore() = 0 : NodeStore::DatabaseShard *
{abstract} +getShardArchiveHandler() = 0 : RPC::ShardArchiveHandler *
{abstract} +getInboundLedgers() = 0 : InboundLedgers &
{abstract} +getInboundTransactions() = 0 : InboundTransactions &
{abstract} +getAcceptedLedgerCache() = 0 : TaggedCache<uint256,AcceptedLedger> &
{abstract} +getLedgerMaster() = 0 : LedgerMaster &
{abstract} +getLedgerCleaner() = 0 : LedgerCleaner &
{abstract} +getLedgerReplayer() = 0 : LedgerReplayer &
{abstract} +getOPs() = 0 : NetworkOPs &
{abstract} +getOrderBookDB() = 0 : OrderBookDB &
{abstract} +getMasterTransaction() = 0 : TransactionMaster &
{abstract} +getPerfLog() = 0 : perf::PerfLog &
{abstract} +nodeIdentity() = 0 : const std::pair<PublicKey,SecretKey> &
{abstract} +getValidationPublicKey() const = 0 : const PublicKey &
{abstract} +getResourceManager() = 0 : Resource::Manager &
{abstract} +getPathRequests() = 0 : PathRequests &
{abstract} +getSHAMapStore() = 0 : SHAMapStore &
{abstract} +pendingSaves() = 0 : PendingSaves &
{abstract} +accountIDCache() const = 0 : const AccountIDCache &
{abstract} +openLedger() = 0 : OpenLedger &
{abstract} +openLedger() const = 0 : const OpenLedger &
{abstract} +getRelationalDatabase() = 0 : RelationalDatabase &
{abstract} +getIOLatency() = 0 : std::chrono::milliseconds
{abstract} +getReportingETL() = 0 : ReportingETL &
{abstract} +serverOkay() = 0 : bool
{abstract} +journal() = 0 : beast::Journal
{abstract} +fdRequired() const = 0 : int
{abstract} +getWalletDB() = 0 : DatabaseCon &
{abstract} +getMaxDisallowedLedger() = 0 : LedgerIndex
}
class "Sandbox" as C_0001499303678521053477
class C_0001499303678521053477 {
+Sandbox() : void
+Sandbox() : void
+operator=() : Sandbox &
+operator=() : Sandbox &
+Sandbox() = default : void
+Sandbox() : void
+Sandbox() : void
+apply() : void
}
class "PaymentSandbox" as C_0000568262759563672206
class C_0000568262759563672206 {
+PaymentSandbox() : void
+PaymentSandbox() : void
+operator=() : PaymentSandbox &
+operator=() : PaymentSandbox &
+PaymentSandbox() = default : void
+PaymentSandbox() : void
+PaymentSandbox() : void
+PaymentSandbox() : void
+PaymentSandbox() : void
+balanceHook() const : STAmount
+creditHook() : void
+adjustOwnerCountHook() : void
+ownerCountHook() const : std::uint32_t
+apply() : void
+apply() : void
+balanceChanges() const : std::map<std::tuple<AccountID,AccountID,Currency>,STAmount>
+xrpDestroyed() const : XRPAmount
}
class "TAmounts<STAmount,STAmount>" as C_0000693225359606114567
class C_0000693225359606114567 {
}
class "Quality" as C_0000142894238032888347
class C_0000142894238032888347 {
+Quality() = default : void
+Quality() : void
+Quality() : void
+operator++() : Quality &
+operator++() : Quality
+operator--() : Quality &
+operator--() : Quality
+rate() const : STAmount
+round() const : Quality
+ceil_in() const : Amounts
+ceil_out() const : Amounts
+Quality() : void
+Quality() : void
+ceil_in() : TAmounts<In, Out>
+ceil_out() : TAmounts<In, Out>
{static} +minTickSize : const int
{static} +maxTickSize : const int
}
class "BookTip" as C_0000222783789670550463
class C_0000222783789670550463 {
+BookTip() : void
+dir() const : const uint256 &
+index() const : const uint256 &
+quality() const : const Quality &
+entry() const : const SLE::pointer &
+step() : bool
}
abstract "TOfferStreamBase<TIn,TOut>" as C_0000598744870317175120
abstract C_0000598744870317175120 {
#erase() : void
{abstract} #permRmOffer() = 0 : void
+TOfferStreamBase<TIn, TOut>() : void
+~TOfferStreamBase<TIn, TOut>() = default : void
+tip() const : TOffer<TIn,TOut> &
+step() : bool
+ownerFunds() const : TOut
#shouldRmSmallIncreasedQOffer() : _Bool
#j_ : const beast::Journal
#validBook_ : bool
#ownerFunds_ : std::optional<TOut>
#counter_ : TOfferStreamBase::StepCounter &
}
class "OfferStream" as C_0000721613385126694300
class C_0000721613385126694300 {
#permRmOffer() : void
+TOfferStreamBase() : void
}
enum "CrossType" as C_0001588465000438359010
enum C_0001588465000438359010 {
XrpToIou
IouToXrp
IouToIou
}
abstract "BasicTaker" as C_0000887558580857567563
abstract C_0000887558580857567563 {
+BasicTaker() : void
+BasicTaker() : void
+BasicTaker() : void
+~BasicTaker() = default : void
+remaining_offer() const : Amounts
+original_offer() const : const Amounts &
+account() const : const AccountID &
+reject() const : bool
+cross_type() const : CrossType
+issue_in() const : const Issue &
+issue_out() const : const Issue &
+unfunded() const : bool
+done() const : bool
+do_cross() : BasicTaker::Flow
+do_cross() : std::pair<BasicTaker::Flow,BasicTaker::Flow>
{abstract} +get_funds() const = 0 : STAmount
#journal_ : const beast::Journal
}
class "TOffer" as C_0000708593764560586938
class C_0000708593764560586938 {
}
class "Taker" as C_0000451549561445986641
class C_0000451549561445986641 {
+Taker() : void
+Taker() : void
+Taker() : void
+~Taker() = default : void
+consume_offer() : void
+get_funds() const : STAmount
+get_xrp_flow() const : const STAmount &
+get_direct_crossings() const : std::uint32_t
+get_bridge_crossings() const : std::uint32_t
+cross() : TER
+cross() : TER
}
class "ApplyViewImpl" as C_0000477867256527986724
class C_0000477867256527986724 {
+ApplyViewImpl() : void
+ApplyViewImpl() : void
+operator=() : ApplyViewImpl &
+operator=() : ApplyViewImpl &
+ApplyViewImpl() = default : void
+ApplyViewImpl() : void
+apply() : void
+deliver() : void
+size() : std::size_t
+visit() : void
}
class "ApplyContext" as C_0000558179133014594300
class C_0000558179133014594300 {
+ApplyContext() : void
+view() : ApplyView &
+view() const : const ApplyView &
+rawView() : RawView &
+deliver() : void
+discard() : void
+apply() : void
+size() : std::size_t
+visit() : void
+destroyXRP() : void
+checkInvariants() : TER
+journal : const beast::Journal
}
class "PreflightContext" as C_0000764312010613974325
class C_0000764312010613974325 {
+PreflightContext() : void
+operator=() : PreflightContext &
+j : const beast::Journal
}
class "PreclaimContext" as C_0001466485965944907982
class C_0001466485965944907982 {
+PreclaimContext() : void
+operator=() : PreclaimContext &
+j : const beast::Journal
}
abstract "Transactor" as C_0001803872408783068022
abstract C_0001803872408783068022 {
#~Transactor() = default : void
#Transactor() : void
#operator=() : Transactor &
+operator()() : std::pair<TER,bool>
+view() : ApplyView &
+view() const : const ApplyView &
{static} +checkSeqProxy() : NotTEC
{static} +checkPriorTxAndLastLedger() : NotTEC
{static} +checkFee() : TER
{static} +checkSign() : NotTEC
{static} +calculateBaseFee() : FeeUnit64
{static} +preclaim() : TER
{static} +ticketDelete() : TER
#apply() : TER
#Transactor() : void
#preCompute() : void
{abstract} #doApply() = 0 : TER
{static} #minimumFee() : XRPAmount
#j_ : const beast::Journal
}
enum "Transactor::ConsequencesFactoryType" as C_0000809957315003140603
enum C_0000809957315003140603 {
Normal
Blocker
Custom
}
class "CreateOffer" as C_0001175315025597906922
class C_0001175315025597906922 {
+CreateOffer() : void
{static} +makeTxConsequences() : TxConsequences
{static} +preflight() : NotTEC
{static} +preclaim() : TER
+preCompute() : void
+doApply() : TER
{static} +ConsequencesFactory : const Transactor::ConsequencesFactoryType
}
class "EscrowCreate" as C_0000742181066435368117
class C_0000742181066435368117 {
+EscrowCreate() : void
{static} +makeTxConsequences() : TxConsequences
{static} +preflight() : NotTEC
+doApply() : TER
{static} +ConsequencesFactory : const Transactor::ConsequencesFactoryType
}
class "EscrowFinish" as C_0000736945656933907706
class C_0000736945656933907706 {
+EscrowFinish() : void
{static} +preflight() : NotTEC
{static} +calculateBaseFee() : FeeUnit64
+doApply() : TER
{static} +ConsequencesFactory : const Transactor::ConsequencesFactoryType
}
class "EscrowCancel" as C_0000869743634096192114
class C_0000869743634096192114 {
+EscrowCancel() : void
{static} +preflight() : NotTEC
+doApply() : TER
{static} +ConsequencesFactory : const Transactor::ConsequencesFactoryType
}
class "SignerEntries" as C_0002075197752258467764
class C_0002075197752258467764 {
+SignerEntries() = default : void
{static} +deserialize() : Expected<std::vector<SignerEntry>,NotTEC>
}
class "SignerEntries::SignerEntry" as C_0001066028196403063339
class C_0001066028196403063339 {
+SignerEntry() : void
+weight : std::uint16_t
}
class "CreateCheck" as C_0000858062903334993678
class C_0000858062903334993678 {
+CreateCheck() : void
{static} +preflight() : NotTEC
{static} +preclaim() : TER
+doApply() : TER
{static} +ConsequencesFactory : const Transactor::ConsequencesFactoryType
}
class "CancelCheck" as C_0000198853701381110834
class C_0000198853701381110834 {
+CancelCheck() : void
{static} +preflight() : NotTEC
{static} +preclaim() : TER
+doApply() : TER
{static} +ConsequencesFactory : const Transactor::ConsequencesFactoryType
}
class "CancelOffer" as C_0000350405927397764475
class C_0000350405927397764475 {
+CancelOffer() : void
{static} +preflight() : NotTEC
{static} +preclaim() : TER
+doApply() : TER
{static} +ConsequencesFactory : const Transactor::ConsequencesFactoryType
}
class "CashCheck" as C_0000717793587650064585
class C_0000717793587650064585 {
+CashCheck() : void
{static} +preflight() : NotTEC
{static} +preclaim() : TER
+doApply() : TER
{static} +ConsequencesFactory : const Transactor::ConsequencesFactoryType
}
class "Change" as C_0000832780465187929931
class C_0000832780465187929931 {
+Change() : void
{static} +preflight() : NotTEC
+doApply() : TER
+preCompute() : void
{static} +calculateBaseFee() : FeeUnit64
{static} +preclaim() : TER
{static} +ConsequencesFactory : const Transactor::ConsequencesFactoryType
}
class "CreateTicket" as C_0001688300558169959195
class C_0001688300558169959195 {
+CreateTicket() : void
{static} +makeTxConsequences() : TxConsequences
{static} +preflight() : NotTEC
{static} +preclaim() : TER
+doApply() : TER
{static} +ConsequencesFactory : const Transactor::ConsequencesFactoryType
{static} +minValidCount : const std::uint32_t
{static} +maxValidCount : const std::uint32_t
{static} +maxTicketThreshold : const std::uint32_t
}
class "DeleteAccount" as C_0001824834698082441825
class C_0001824834698082441825 {
+DeleteAccount() : void
{static} +preflight() : NotTEC
{static} +calculateBaseFee() : FeeUnit64
{static} +preclaim() : TER
+doApply() : TER
{static} +ConsequencesFactory : const Transactor::ConsequencesFactoryType
}
class "DepositPreauth" as C_0000057428071286584009
class C_0000057428071286584009 {
+DepositPreauth() : void
{static} +preflight() : NotTEC
{static} +preclaim() : TER
+doApply() : TER
{static} +removeFromLedger() : TER
{static} +ConsequencesFactory : const Transactor::ConsequencesFactoryType
}
class "NFTokenAcceptOffer" as C_0000100228512273428067
class C_0000100228512273428067 {
+NFTokenAcceptOffer() : void
{static} +preflight() : NotTEC
{static} +preclaim() : TER
+doApply() : TER
{static} +ConsequencesFactory : const Transactor::ConsequencesFactoryType
}
class "NFTokenBurn" as C_0002292031307835893687
class C_0002292031307835893687 {
+NFTokenBurn() : void
{static} +preflight() : NotTEC
{static} +preclaim() : TER
+doApply() : TER
{static} +ConsequencesFactory : const Transactor::ConsequencesFactoryType
}
class "NFTokenCancelOffer" as C_0001668313908712968664
class C_0001668313908712968664 {
+NFTokenCancelOffer() : void
{static} +preflight() : NotTEC
{static} +preclaim() : TER
+doApply() : TER
{static} +ConsequencesFactory : const Transactor::ConsequencesFactoryType
}
class "NFTokenCreateOffer" as C_0000446373105482655982
class C_0000446373105482655982 {
+NFTokenCreateOffer() : void
{static} +preflight() : NotTEC
{static} +preclaim() : TER
+doApply() : TER
{static} +ConsequencesFactory : const Transactor::ConsequencesFactoryType
}
class "tagged_integer<std::uint32_t,nft::TaxonTag>" as C_0001832472898421468067
class C_0001832472898421468067 {
}
class "NFTokenMint" as C_0000237359995682401459
class C_0000237359995682401459 {
+NFTokenMint() : void
{static} +preflight() : NotTEC
{static} +preclaim() : TER
+doApply() : TER
{static} +createNFTokenID() : uint256
{static} +ConsequencesFactory : const Transactor::ConsequencesFactoryType
}
class "PayChanCreate" as C_0001757601934857525696
class C_0001757601934857525696 {
+PayChanCreate() : void
{static} +makeTxConsequences() : TxConsequences
{static} +preflight() : NotTEC
{static} +preclaim() : TER
+doApply() : TER
{static} +ConsequencesFactory : const Transactor::ConsequencesFactoryType
}
class "PayChanFund" as C_0000622857826693757188
class C_0000622857826693757188 {
+PayChanFund() : void
{static} +makeTxConsequences() : TxConsequences
{static} +preflight() : NotTEC
+doApply() : TER
{static} +ConsequencesFactory : const Transactor::ConsequencesFactoryType
}
class "PayChanClaim" as C_0002125151081118472618
class C_0002125151081118472618 {
+PayChanClaim() : void
{static} +preflight() : NotTEC
+doApply() : TER
{static} +ConsequencesFactory : const Transactor::ConsequencesFactoryType
}
class "Payment" as C_0000019330682777597276
class C_0000019330682777597276 {
+Payment() : void
{static} +makeTxConsequences() : TxConsequences
{static} +preflight() : NotTEC
{static} +preclaim() : TER
+doApply() : TER
{static} +ConsequencesFactory : const Transactor::ConsequencesFactoryType
}
class "SetAccount" as C_0001804646690586674941
class C_0001804646690586674941 {
+SetAccount() : void
{static} +makeTxConsequences() : TxConsequences
{static} +preflight() : NotTEC
{static} +preclaim() : TER
+doApply() : TER
{static} +ConsequencesFactory : const Transactor::ConsequencesFactoryType
}
class "SetRegularKey" as C_0000496037997591183295
class C_0000496037997591183295 {
+SetRegularKey() : void
{static} +preflight() : NotTEC
{static} +calculateBaseFee() : FeeUnit64
+doApply() : TER
{static} +ConsequencesFactory : const Transactor::ConsequencesFactoryType
}
class "SetSignerList" as C_0001369940774683844358
class C_0001369940774683844358 {
+SetSignerList() : void
{static} +preflight() : NotTEC
+doApply() : TER
+preCompute() : void
{static} +removeFromLedger() : TER
{static} +ConsequencesFactory : const Transactor::ConsequencesFactoryType
}
enum "SetSignerList::Operation" as C_0001930339479965905748
enum C_0001930339479965905748 {
unknown
set
destroy
}
class "SetTrust" as C_0000600196718699153804
class C_0000600196718699153804 {
+SetTrust() : void
{static} +preflight() : NotTEC
{static} +preclaim() : TER
+doApply() : TER
{static} +ConsequencesFactory : const Transactor::ConsequencesFactoryType
}
abstract "TOfferStreamBase" as C_0002069115080103222246
abstract C_0002069115080103222246 {
#erase() : void
{abstract} #permRmOffer() = 0 : void
+TOfferStreamBase() : void
+~TOfferStreamBase() = default : void
+tip() const : TOffer<> &
+step() : bool
+ownerFunds() const : STAmount
#shouldRmSmallIncreasedQOffer() : _Bool
#j_ : const beast::Journal
#validBook_ : bool
#counter_ : TOfferStreamBase<STAmount,STAmount>::StepCounter &
}
abstract "TOfferStreamBase<STAmount,STAmount>" as C_0001687791090055685046
abstract C_0001687791090055685046 {
#erase() : void
{abstract} #permRmOffer() = 0 : void
+TOfferStreamBase() : void
+~TOfferStreamBase() = default : void
+tip() const : TOffer<> &
+step() : bool
+ownerFunds() const : STAmount
#shouldRmSmallIncreasedQOffer() : _Bool
#j_ : const beast::Journal
#validBook_ : bool
#counter_ : TOfferStreamBase<STAmount,STAmount>::StepCounter &
}
abstract "TOfferStreamBase<IOUAmount,IOUAmount>" as C_0002097627662086590228
abstract C_0002097627662086590228 {
#erase() : void
{abstract} #permRmOffer() = 0 : void
+TOfferStreamBase() : void
+~TOfferStreamBase() = default : void
+tip() const : TOffer<IOUAmount,IOUAmount> &
+step() : bool
+ownerFunds() const : IOUAmount
#shouldRmSmallIncreasedQOffer() : _Bool
#j_ : const beast::Journal
#validBook_ : bool
#counter_ : TOfferStreamBase<IOUAmount,IOUAmount>::StepCounter &
}
abstract "TOfferStreamBase<XRPAmount,IOUAmount>" as C_0001443964797043411250
abstract C_0001443964797043411250 {
#erase() : void
{abstract} #permRmOffer() = 0 : void
+TOfferStreamBase() : void
+~TOfferStreamBase() = default : void
+tip() const : TOffer<XRPAmount,IOUAmount> &
+step() : bool
+ownerFunds() const : IOUAmount
#shouldRmSmallIncreasedQOffer() : _Bool
#j_ : const beast::Journal
#validBook_ : bool
#counter_ : TOfferStreamBase<XRPAmount,IOUAmount>::StepCounter &
}
abstract "TOfferStreamBase<IOUAmount,XRPAmount>" as C_0000528931896072815841
abstract C_0000528931896072815841 {
#erase() : void
{abstract} #permRmOffer() = 0 : void
+TOfferStreamBase() : void
+~TOfferStreamBase() = default : void
+tip() const : TOffer<IOUAmount,XRPAmount> &
+step() : bool
+ownerFunds() const : XRPAmount
#shouldRmSmallIncreasedQOffer() : _Bool
#j_ : const beast::Journal
#validBook_ : bool
#counter_ : TOfferStreamBase<IOUAmount,XRPAmount>::StepCounter &
}
C_0002185921478450888283 ..> C_0000219725434573906145
C_0000486101097040278900 ..> C_0000219725434573906145
C_0000486101097040278900 ..> C_0002185921478450888283
C_0000486101097040278900 o-- C_0002185921478450888283 : +account
C_0002294399890504248264 ..> C_0000486101097040278900
C_0002294399890504248264 o-- C_0000486101097040278900 : +in
C_0002294399890504248264 o-- C_0000486101097040278900 : +out
C_0000215260707563711311 ..> C_0000486101097040278900
C_0000215260707563711311 ..> C_0000437628577035957607
C_0000215260707563711311 ..> C_0000219725434573906145
C_0000215260707563711311 ..> C_0002185921478450888283
C_0000215260707563711311 o-- C_0000486101097040278900 : -mIssue
C_0001368282348178883598 ..> C_0000434356742846908842
C_0001368282348178883598 ..> C_0000219725434573906145
C_0001368282348178883598 ..> C_0002185921478450888283
C_0001368282348178883598 ..> C_0000215260707563711311
C_0001270395620897132534 ..> C_0000434356742846908842
C_0001270395620897132534 ..> C_0001368282348178883598
C_0001270395620897132534 o-- C_0000434356742846908842 : -key_
C_0001368282348178883598 <|-- C_0001270395620897132534
C_0001992233408632539458 ..> C_0000434356742846908842
C_0001059260590421798558 ..> C_0001992233408632539458
C_0001059260590421798558 ..> C_0001368282348178883598
C_0001059260590421798558 o-- C_0000434356742846908842 : -tid_
C_0001368282348178883598 <|-- C_0001059260590421798558
C_0001865612077954784567 ..> C_0001742230320570160499
C_0001865612077954784567 o-- C_0000437628577035957607 : +base
C_0001865612077954784567 o-- C_0000437628577035957607 : +reserve
C_0001865612077954784567 o-- C_0000437628577035957607 : +increment
C_0000719484062983967559 ..> C_0000434356742846908842
C_0000719484062983967559 ..> C_0000219725434573906145
C_0000719484062983967559 ..> C_0002185921478450888283
C_0000719484062983967559 ..> C_0000215260707563711311
C_0000368611166212330145 ..> C_0000434356742846908842
C_0000368611166212330145 ..> C_0001270395620897132534
C_0000368611166212330145 ..> C_0000219725434573906145
C_0000368611166212330145 ..> C_0002185921478450888283
C_0000368611166212330145 ..> C_0000215260707563711311
C_0000719484062983967559 <|-- C_0000368611166212330145
C_0001016063512578111556 ..> C_0000719484062983967559
C_0001016063512578111556 ..> C_0001992233408632539458
C_0001016063512578111556 ..> C_0000434356742846908842
C_0001016063512578111556 ..> C_0001270395620897132534
C_0001016063512578111556 ..> C_0000437628577035957607
C_0001016063512578111556 o-- C_0000434356742846908842 : -txs_
C_0001016063512578111556 o-- C_0001992233408632539458 : -rules_
C_0001016063512578111556 --> C_0000719484062983967559 : -base_
C_0000719484062983967559 <|-- C_0001016063512578111556
C_0001499303678521053477 ..> C_0000719484062983967559
C_0001499303678521053477 ..> C_0000461717163604842131
C_0001499303678521053477 ..> C_0000368611166212330145
C_0000568262759563672206 ..> C_0000719484062983967559
C_0000568262759563672206 ..> C_0000461717163604842131
C_0000568262759563672206 ..> C_0000368611166212330145
C_0000568262759563672206 ..> C_0000219725434573906145
C_0000568262759563672206 ..> C_0002185921478450888283
C_0000568262759563672206 ..> C_0000215260707563711311
C_0000568262759563672206 --> C_0000568262759563672206 : -ps_
C_0000693225359606114567 ..> C_0000215260707563711311
C_0000142894238032888347 ..> C_0000215260707563711311
C_0000142894238032888347 ..> C_0000693225359606114567
C_0000222783789670550463 ..> C_0000368611166212330145
C_0000222783789670550463 ..> C_0002294399890504248264
C_0000222783789670550463 --> C_0000368611166212330145 : -view_
C_0000222783789670550463 o-- C_0000434356742846908842 : -m_book
C_0000222783789670550463 o-- C_0000434356742846908842 : -m_end
C_0000222783789670550463 o-- C_0000434356742846908842 : -m_dir
C_0000222783789670550463 o-- C_0000434356742846908842 : -m_index
C_0000222783789670550463 --> C_0001270395620897132534 : -m_entry
C_0000222783789670550463 o-- C_0000142894238032888347 : -m_quality
C_0000598744870317175120 ..> C_0000368611166212330145
C_0000598744870317175120 ..> C_0000434356742846908842
C_0000598744870317175120 ..> C_0002294399890504248264
C_0000598744870317175120 ..> C_0000673331345305095894
C_0000598744870317175120 --> C_0000368611166212330145 : #view_
C_0000598744870317175120 --> C_0000368611166212330145 : #cancelView_
C_0000598744870317175120 o-- C_0002294399890504248264 : #book_
C_0000598744870317175120 o-- C_0000673331345305095894 : #expire_
C_0000598744870317175120 o-- C_0000222783789670550463 : #tip_
C_0000721613385126694300 ..> C_0000434356742846908842
C_0000721613385126694300 ..> C_0000368611166212330145
C_0000721613385126694300 ..> C_0002294399890504248264
C_0000721613385126694300 ..> C_0000673331345305095894
C_0002069115080103222246 <|-- C_0000721613385126694300
C_0000887558580857567563 ..> C_0000215260707563711311
C_0000887558580857567563 ..> C_0000693225359606114567
C_0000887558580857567563 ..> C_0000142894238032888347
C_0000887558580857567563 ..> C_0000486101097040278900
C_0000887558580857567563 ..> C_0000219725434573906145
C_0000887558580857567563 ..> C_0002185921478450888283
C_0000887558580857567563 ..> C_0001588465000438359010
C_0000887558580857567563 o-- C_0002185921478450888283 : -account_
C_0000887558580857567563 o-- C_0000142894238032888347 : -quality_
C_0000887558580857567563 o-- C_0000142894238032888347 : -threshold_
C_0000887558580857567563 o-- C_0000693225359606114567 : -original_
C_0000887558580857567563 o-- C_0000693225359606114567 : -remaining_
C_0000887558580857567563 --> C_0000486101097040278900 : -issue_in_
C_0000887558580857567563 --> C_0000486101097040278900 : -issue_out_
C_0000887558580857567563 o-- C_0001588465000438359010 : -cross_type_
C_0000451549561445986641 ..> C_0001588465000438359010
C_0000451549561445986641 ..> C_0000368611166212330145
C_0000451549561445986641 ..> C_0000219725434573906145
C_0000451549561445986641 ..> C_0002185921478450888283
C_0000451549561445986641 ..> C_0000215260707563711311
C_0000451549561445986641 ..> C_0000693225359606114567
C_0000451549561445986641 ..> C_0000708593764560586938
C_0000451549561445986641 ..> C_0000486101097040278900
C_0000451549561445986641 --> C_0000368611166212330145 : -view_
C_0000451549561445986641 o-- C_0000215260707563711311 : -xrp_flow_
C_0000887558580857567563 <|-- C_0000451549561445986641
C_0000477867256527986724 ..> C_0000719484062983967559
C_0000477867256527986724 ..> C_0000461717163604842131
C_0000477867256527986724 ..> C_0001016063512578111556
C_0000477867256527986724 ..> C_0001059260590421798558
C_0000477867256527986724 ..> C_0000387912696222928946
C_0000477867256527986724 ..> C_0000215260707563711311
C_0000477867256527986724 ..> C_0001270395620897132534
C_0000477867256527986724 o-- C_0000215260707563711311 : -deliver_
C_0000558179133014594300 ..> C_0000024089222317618888
C_0000558179133014594300 ..> C_0001016063512578111556
C_0000558179133014594300 ..> C_0001059260590421798558
C_0000558179133014594300 ..> C_0000387912696222928946
C_0000558179133014594300 ..> C_0001742230320570160499
C_0000558179133014594300 ..> C_0000461717163604842131
C_0000558179133014594300 ..> C_0000215260707563711311
C_0000558179133014594300 ..> C_0001270395620897132534
C_0000558179133014594300 ..> C_0000437628577035957607
C_0000558179133014594300 --> C_0000024089222317618888 : +app
C_0000558179133014594300 --> C_0001059260590421798558 : +tx
C_0000558179133014594300 o-- C_0000387912696222928946 : +preclaimResult
C_0000558179133014594300 o-- C_0001742230320570160499 : +baseFee
C_0000558179133014594300 --> C_0001016063512578111556 : -base_
C_0000558179133014594300 o-- C_0000461717163604842131 : -flags_
C_0000558179133014594300 o-- C_0000477867256527986724 : -view_
C_0000764312010613974325 ..> C_0000024089222317618888
C_0000764312010613974325 ..> C_0001059260590421798558
C_0000764312010613974325 ..> C_0001992233408632539458
C_0000764312010613974325 ..> C_0000461717163604842131
C_0000764312010613974325 --> C_0000024089222317618888 : +app
C_0000764312010613974325 --> C_0001059260590421798558 : +tx
C_0000764312010613974325 o-- C_0001992233408632539458 : +rules
C_0000764312010613974325 o-- C_0000461717163604842131 : +flags
C_0001466485965944907982 ..> C_0000024089222317618888
C_0001466485965944907982 ..> C_0000719484062983967559
C_0001466485965944907982 ..> C_0000387912696222928946
C_0001466485965944907982 ..> C_0001059260590421798558
C_0001466485965944907982 ..> C_0000461717163604842131
C_0001466485965944907982 --> C_0000024089222317618888 : +app
C_0001466485965944907982 --> C_0000719484062983967559 : +view
C_0001466485965944907982 o-- C_0000387912696222928946 : +preflightResult
C_0001466485965944907982 --> C_0001059260590421798558 : +tx
C_0001466485965944907982 o-- C_0000461717163604842131 : +flags
C_0001803872408783068022 ..> C_0000719484062983967559
C_0001803872408783068022 ..> C_0001059260590421798558
C_0001803872408783068022 ..> C_0001466485965944907982
C_0001803872408783068022 ..> C_0001742230320570160499
C_0001803872408783068022 ..> C_0000368611166212330145
C_0001803872408783068022 ..> C_0000219725434573906145
C_0001803872408783068022 ..> C_0002185921478450888283
C_0001803872408783068022 ..> C_0000434356742846908842
C_0001803872408783068022 ..> C_0000558179133014594300
C_0001803872408783068022 ..> C_0000024089222317618888
C_0001803872408783068022 ..> C_0001865612077954784567
C_0001803872408783068022 ..> C_0000461717163604842131
C_0001803872408783068022 ..> C_0000437628577035957607
C_0001803872408783068022 ..> C_0001270395620897132534
C_0001803872408783068022 --> C_0000558179133014594300 : #ctx_
C_0001803872408783068022 o-- C_0002185921478450888283 : #account_
C_0001803872408783068022 o-- C_0000437628577035957607 : #mPriorBalance
C_0001803872408783068022 o-- C_0000437628577035957607 : #mSourceBalance
C_0000809957315003140603 --+ C_0001803872408783068022
C_0001175315025597906922 ..> C_0000558179133014594300
C_0001175315025597906922 ..> C_0000764312010613974325
C_0001175315025597906922 ..> C_0001466485965944907982
C_0001175315025597906922 ..> C_0001499303678521053477
C_0001175315025597906922 ..> C_0000719484062983967559
C_0001175315025597906922 ..> C_0000461717163604842131
C_0001175315025597906922 ..> C_0000219725434573906145
C_0001175315025597906922 ..> C_0002185921478450888283
C_0001175315025597906922 ..> C_0000486101097040278900
C_0001175315025597906922 ..> C_0000368611166212330145
C_0001175315025597906922 ..> C_0000708593764560586938
C_0001175315025597906922 ..> C_0000721613385126694300
C_0001175315025597906922 ..> C_0000451549561445986641
C_0001175315025597906922 ..> C_0000673331345305095894
C_0001175315025597906922 ..> C_0000215260707563711311
C_0001175315025597906922 ..> C_0000693225359606114567
C_0001175315025597906922 ..> C_0000568262759563672206
C_0001175315025597906922 o-- C_0001588465000438359010 : -cross_type_
C_0001803872408783068022 <|-- C_0001175315025597906922
C_0000742181066435368117 ..> C_0000558179133014594300
C_0000742181066435368117 ..> C_0000764312010613974325
C_0001803872408783068022 <|-- C_0000742181066435368117
C_0000736945656933907706 ..> C_0000558179133014594300
C_0000736945656933907706 ..> C_0000764312010613974325
C_0000736945656933907706 ..> C_0000719484062983967559
C_0000736945656933907706 ..> C_0001059260590421798558
C_0001803872408783068022 <|-- C_0000736945656933907706
C_0000869743634096192114 ..> C_0000558179133014594300
C_0000869743634096192114 ..> C_0000764312010613974325
C_0001803872408783068022 <|-- C_0000869743634096192114
C_0002075197752258467764 ..> C_0001368282348178883598
C_0001066028196403063339 --+ C_0002075197752258467764
C_0001066028196403063339 ..> C_0000219725434573906145
C_0001066028196403063339 ..> C_0002185921478450888283
C_0001066028196403063339 o-- C_0002185921478450888283 : +account
C_0001066028196403063339 ..> C_0000434356742846908842
C_0001066028196403063339 o-- C_0000434356742846908842 : +tag
C_0000858062903334993678 ..> C_0000558179133014594300
C_0000858062903334993678 ..> C_0000764312010613974325
C_0000858062903334993678 ..> C_0001466485965944907982
C_0001803872408783068022 <|-- C_0000858062903334993678
C_0000198853701381110834 ..> C_0000558179133014594300
C_0000198853701381110834 ..> C_0000764312010613974325
C_0000198853701381110834 ..> C_0001466485965944907982
C_0001803872408783068022 <|-- C_0000198853701381110834
C_0000350405927397764475 ..> C_0000558179133014594300
C_0000350405927397764475 ..> C_0000764312010613974325
C_0000350405927397764475 ..> C_0001466485965944907982
C_0001803872408783068022 <|-- C_0000350405927397764475
C_0000717793587650064585 ..> C_0000558179133014594300
C_0000717793587650064585 ..> C_0000764312010613974325
C_0000717793587650064585 ..> C_0001466485965944907982
C_0001803872408783068022 <|-- C_0000717793587650064585
C_0000832780465187929931 ..> C_0000558179133014594300
C_0000832780465187929931 ..> C_0000764312010613974325
C_0000832780465187929931 ..> C_0000719484062983967559
C_0000832780465187929931 ..> C_0001059260590421798558
C_0000832780465187929931 ..> C_0001466485965944907982
C_0001803872408783068022 <|-- C_0000832780465187929931
C_0001688300558169959195 ..> C_0000558179133014594300
C_0001688300558169959195 ..> C_0000764312010613974325
C_0001688300558169959195 ..> C_0001466485965944907982
C_0001803872408783068022 <|-- C_0001688300558169959195
C_0001824834698082441825 ..> C_0000558179133014594300
C_0001824834698082441825 ..> C_0000764312010613974325
C_0001824834698082441825 ..> C_0000719484062983967559
C_0001824834698082441825 ..> C_0001059260590421798558
C_0001824834698082441825 ..> C_0001466485965944907982
C_0001803872408783068022 <|-- C_0001824834698082441825
C_0000057428071286584009 ..> C_0000558179133014594300
C_0000057428071286584009 ..> C_0000764312010613974325
C_0000057428071286584009 ..> C_0001466485965944907982
C_0000057428071286584009 ..> C_0000024089222317618888
C_0000057428071286584009 ..> C_0000368611166212330145
C_0000057428071286584009 ..> C_0000434356742846908842
C_0001803872408783068022 <|-- C_0000057428071286584009
C_0000100228512273428067 ..> C_0000219725434573906145
C_0000100228512273428067 ..> C_0002185921478450888283
C_0000100228512273428067 ..> C_0000215260707563711311
C_0000100228512273428067 ..> C_0001270395620897132534
C_0000100228512273428067 ..> C_0000558179133014594300
C_0000100228512273428067 ..> C_0000764312010613974325
C_0000100228512273428067 ..> C_0001466485965944907982
C_0001803872408783068022 <|-- C_0000100228512273428067
C_0002292031307835893687 ..> C_0000558179133014594300
C_0002292031307835893687 ..> C_0000764312010613974325
C_0002292031307835893687 ..> C_0001466485965944907982
C_0001803872408783068022 <|-- C_0002292031307835893687
C_0001668313908712968664 ..> C_0000558179133014594300
C_0001668313908712968664 ..> C_0000764312010613974325
C_0001668313908712968664 ..> C_0001466485965944907982
C_0001803872408783068022 <|-- C_0001668313908712968664
C_0000446373105482655982 ..> C_0000558179133014594300
C_0000446373105482655982 ..> C_0000764312010613974325
C_0000446373105482655982 ..> C_0001466485965944907982
C_0001803872408783068022 <|-- C_0000446373105482655982
C_0001832472898421468067 ..> C_0000528120435939077497
C_0000237359995682401459 ..> C_0000558179133014594300
C_0000237359995682401459 ..> C_0000764312010613974325
C_0000237359995682401459 ..> C_0001466485965944907982
C_0000237359995682401459 ..> C_0000219725434573906145
C_0000237359995682401459 ..> C_0002185921478450888283
C_0000237359995682401459 ..> C_0000528120435939077497
C_0000237359995682401459 ..> C_0001832472898421468067
C_0001803872408783068022 <|-- C_0000237359995682401459
C_0001757601934857525696 ..> C_0000558179133014594300
C_0001757601934857525696 ..> C_0000764312010613974325
C_0001757601934857525696 ..> C_0001466485965944907982
C_0001803872408783068022 <|-- C_0001757601934857525696
C_0000622857826693757188 ..> C_0000558179133014594300
C_0000622857826693757188 ..> C_0000764312010613974325
C_0001803872408783068022 <|-- C_0000622857826693757188
C_0002125151081118472618 ..> C_0000558179133014594300
C_0002125151081118472618 ..> C_0000764312010613974325
C_0001803872408783068022 <|-- C_0002125151081118472618
C_0000019330682777597276 ..> C_0000558179133014594300
C_0000019330682777597276 ..> C_0000764312010613974325
C_0000019330682777597276 ..> C_0001466485965944907982
C_0001803872408783068022 <|-- C_0000019330682777597276
C_0001804646690586674941 ..> C_0000558179133014594300
C_0001804646690586674941 ..> C_0000764312010613974325
C_0001804646690586674941 ..> C_0001466485965944907982
C_0001803872408783068022 <|-- C_0001804646690586674941
C_0000496037997591183295 ..> C_0000558179133014594300
C_0000496037997591183295 ..> C_0000764312010613974325
C_0000496037997591183295 ..> C_0000719484062983967559
C_0000496037997591183295 ..> C_0001059260590421798558
C_0001803872408783068022 <|-- C_0000496037997591183295
C_0001369940774683844358 ..> C_0000558179133014594300
C_0001369940774683844358 ..> C_0000764312010613974325
C_0001369940774683844358 ..> C_0000024089222317618888
C_0001369940774683844358 ..> C_0000368611166212330145
C_0001369940774683844358 ..> C_0000219725434573906145
C_0001369940774683844358 ..> C_0002185921478450888283
C_0001369940774683844358 ..> C_0001059260590421798558
C_0001369940774683844358 ..> C_0000461717163604842131
C_0001369940774683844358 ..> C_0001992233408632539458
C_0001369940774683844358 ..> C_0001270395620897132534
C_0001803872408783068022 <|-- C_0001369940774683844358
C_0001930339479965905748 --+ C_0001369940774683844358
C_0000600196718699153804 ..> C_0000558179133014594300
C_0000600196718699153804 ..> C_0000764312010613974325
C_0000600196718699153804 ..> C_0001466485965944907982
C_0001803872408783068022 <|-- C_0000600196718699153804
C_0002069115080103222246 ..> C_0000368611166212330145
C_0002069115080103222246 ..> C_0000434356742846908842
C_0002069115080103222246 ..> C_0002294399890504248264
C_0002069115080103222246 ..> C_0000673331345305095894
C_0002069115080103222246 --> C_0000368611166212330145 : #view_
C_0002069115080103222246 --> C_0000368611166212330145 : #cancelView_
C_0002069115080103222246 o-- C_0002294399890504248264 : #book_
C_0002069115080103222246 o-- C_0000673331345305095894 : #expire_
C_0002069115080103222246 o-- C_0000222783789670550463 : #tip_
C_0002069115080103222246 o-- C_0000215260707563711311 : #ownerFunds_
C_0001687791090055685046 ..> C_0000368611166212330145
C_0001687791090055685046 ..> C_0000434356742846908842
C_0001687791090055685046 ..> C_0002294399890504248264
C_0001687791090055685046 ..> C_0000673331345305095894
C_0001687791090055685046 --> C_0000368611166212330145 : #view_
C_0001687791090055685046 --> C_0000368611166212330145 : #cancelView_
C_0001687791090055685046 o-- C_0002294399890504248264 : #book_
C_0001687791090055685046 o-- C_0000673331345305095894 : #expire_
C_0001687791090055685046 o-- C_0000222783789670550463 : #tip_
C_0001687791090055685046 o-- C_0000215260707563711311 : #ownerFunds_
C_0001687791090055685046 ..|> C_0000598744870317175120
C_0002097627662086590228 ..> C_0000368611166212330145
C_0002097627662086590228 ..> C_0000434356742846908842
C_0002097627662086590228 ..> C_0002294399890504248264
C_0002097627662086590228 ..> C_0000673331345305095894
C_0002097627662086590228 --> C_0000368611166212330145 : #view_
C_0002097627662086590228 --> C_0000368611166212330145 : #cancelView_
C_0002097627662086590228 o-- C_0002294399890504248264 : #book_
C_0002097627662086590228 o-- C_0000673331345305095894 : #expire_
C_0002097627662086590228 o-- C_0000222783789670550463 : #tip_
C_0002097627662086590228 ..|> C_0000598744870317175120
C_0001443964797043411250 ..> C_0000368611166212330145
C_0001443964797043411250 ..> C_0000434356742846908842
C_0001443964797043411250 ..> C_0002294399890504248264
C_0001443964797043411250 ..> C_0000673331345305095894
C_0001443964797043411250 --> C_0000368611166212330145 : #view_
C_0001443964797043411250 --> C_0000368611166212330145 : #cancelView_
C_0001443964797043411250 o-- C_0002294399890504248264 : #book_
C_0001443964797043411250 o-- C_0000673331345305095894 : #expire_
C_0001443964797043411250 o-- C_0000222783789670550463 : #tip_
C_0001443964797043411250 ..|> C_0000598744870317175120
C_0000528931896072815841 ..> C_0000368611166212330145
C_0000528931896072815841 ..> C_0000434356742846908842
C_0000528931896072815841 ..> C_0002294399890504248264
C_0000528931896072815841 ..> C_0000673331345305095894
C_0000528931896072815841 --> C_0000368611166212330145 : #view_
C_0000528931896072815841 --> C_0000368611166212330145 : #cancelView_
C_0000528931896072815841 o-- C_0002294399890504248264 : #book_
C_0000528931896072815841 o-- C_0000673331345305095894 : #expire_
C_0000528931896072815841 o-- C_0000222783789670550463 : #tip_
C_0000528931896072815841 o-- C_0000437628577035957607 : #ownerFunds_
C_0000528931896072815841 ..|> C_0000598744870317175120
@enduml
